<svg width="36" height="36" viewBox="0 0 36 36" fill="none" xmlns="http://www.w3.org/2000/svg">
<path d="M18 10.5H12.1667C11.7246 10.5 11.3007 10.6756 10.9882 10.9882C10.6756 11.3007 10.5 11.7246 10.5 12.1667V23.8333C10.5 24.2754 10.6756 24.6993 10.9882 25.0118C11.3007 25.3244 11.7246 25.5 12.1667 25.5H23.8333C24.2754 25.5 24.6993 25.3244 25.0118 25.0118C25.3244 24.6993 25.5 24.2754 25.5 23.8333V18" stroke="#60A5FA" stroke-width="2" stroke-linecap="round" stroke-linejoin="round"/>
<path d="M23.3132 10.1874C23.6447 9.85592 24.0944 9.66968 24.5632 9.66968C25.0321 9.66968 25.4817 9.85592 25.8132 10.1874C26.1448 10.519 26.331 10.9686 26.331 11.4374C26.331 11.9063 26.1448 12.3559 25.8132 12.6874L18.3024 20.1991C18.1045 20.3968 17.8601 20.5415 17.5916 20.6199L15.1974 21.3199C15.1257 21.3409 15.0497 21.3421 14.9773 21.3236C14.905 21.305 14.8389 21.2674 14.7861 21.2146C14.7333 21.1618 14.6956 21.0957 14.6771 21.0234C14.6586 20.951 14.6598 20.875 14.6807 20.8033L15.3807 18.4091C15.4595 18.1408 15.6045 17.8967 15.8024 17.6991L23.3132 10.1874Z" stroke="#60A5FA" stroke-width="2" stroke-linecap="round" stroke-linejoin="round"/>
</svg>
