<svg width="28" height="28" viewBox="0 0 28 28" fill="none" xmlns="http://www.w3.org/2000/svg">
<path d="M14.0007 25.6667C20.444 25.6667 25.6673 20.4434 25.6673 14C25.6673 7.55672 20.444 2.33337 14.0007 2.33337C7.55733 2.33337 2.33398 7.55672 2.33398 14C2.33398 20.4434 7.55733 25.6667 14.0007 25.6667Z" stroke="white" stroke-width="2" stroke-linecap="round" stroke-linejoin="round"/>
<path d="M14 21C17.866 21 21 17.866 21 14C21 10.134 17.866 7 14 7C10.134 7 7 10.134 7 14C7 17.866 10.134 21 14 21Z" stroke="white" stroke-width="2" stroke-linecap="round" stroke-linejoin="round"/>
<path d="M13.9993 16.3333C15.288 16.3333 16.3327 15.2886 16.3327 14C16.3327 12.7113 15.288 11.6666 13.9993 11.6666C12.7107 11.6666 11.666 12.7113 11.666 14C11.666 15.2886 12.7107 16.3333 13.9993 16.3333Z" stroke="white" stroke-width="2" stroke-linecap="round" stroke-linejoin="round"/>
</svg>
