<svg width="48" height="48" viewBox="0 0 48 48" fill="none" xmlns="http://www.w3.org/2000/svg">
<path d="M0 24C0 10.7452 10.7452 0 24 0C37.2548 0 48 10.7452 48 24C48 37.2548 37.2548 48 24 48C10.7452 48 0 37.2548 0 24Z" fill="#1E3A8A" fill-opacity="0.3"/>
<path d="M24 34C25.8565 34 27.637 33.2625 28.9497 31.9497C30.2625 30.637 31 28.8565 31 27C31 25 30 23.1 28 21.5C26 19.9 24.5 17.5 24 15C23.5 17.5 22 19.9 20 21.5C18 23.1 17 25 17 27C17 28.8565 17.7375 30.637 19.0503 31.9497C20.363 33.2625 22.1435 34 24 34Z" stroke="#60A5FA" stroke-width="2" stroke-linecap="round" stroke-linejoin="round"/>
</svg>
